<svg width="76" height="76" viewBox="0 0 76 76" fill="none" xmlns="http://www.w3.org/2000/svg">
<path d="M60.1667 34.8333H22.61L34.105 21.0266C34.6425 20.38 34.9011 19.5462 34.8239 18.7089C34.7467 17.8715 34.34 17.0991 33.6934 16.5616C33.0467 16.0241 32.2129 15.7655 31.3756 15.8427C30.5382 15.9199 29.7659 16.3266 29.2284 16.9733L13.395 35.9733C13.2885 36.1244 13.1932 36.2832 13.11 36.4483C13.11 36.6066 13.11 36.7016 12.8884 36.86C12.7448 37.2231 12.6697 37.6096 12.6667 38C12.6697 38.3904 12.7448 38.7769 12.8884 39.14C12.8884 39.2983 12.8884 39.3933 13.11 39.5516C13.1932 39.7168 13.2885 39.8755 13.395 40.0266L29.2284 59.0266C29.5261 59.3841 29.8989 59.6716 30.3204 59.8686C30.7418 60.0656 31.2015 60.1674 31.6667 60.1666C32.4066 60.1681 33.1236 59.9104 33.6934 59.4383C34.014 59.1725 34.2791 58.846 34.4733 58.4775C34.6676 58.1091 34.7873 57.706 34.8256 57.2912C34.8638 56.8765 34.8198 56.4582 34.6962 56.0605C34.5726 55.6627 34.3717 55.2933 34.105 54.9733L22.61 41.1666H60.1667C61.0065 41.1666 61.812 40.833 62.4059 40.2391C62.9997 39.6453 63.3334 38.8398 63.3334 38C63.3334 37.1601 62.9997 36.3547 62.4059 35.7608C61.812 35.1669 61.0065 34.8333 60.1667 34.8333Z" fill="#F0FDFC"/>
</svg>
