<svg width="30" height="40" viewBox="0 0 30 40" fill="none" xmlns="http://www.w3.org/2000/svg">
<path d="M13.095 2.894C12.315 1.336 10.685 0.0749991 8.68299 0.297999C6.89199 0.496999 4.23299 1.163 2.41999 3.346C0.55999 5.59 -0.135011 9.088 1.29399 14.33C2.81999 19.921 5.08599 25.432 7.90299 29.88C10.699 34.295 14.143 37.828 18.094 39.183C21.588 40.382 24.26 39.882 26.209 38.566C28.089 37.297 29.121 35.388 29.655 34.066C30.253 32.585 29.859 31.044 29.079 29.909L26.202 25.725C25.5664 24.8005 24.6514 24.1039 23.5911 23.7373C22.5307 23.3707 21.3809 23.3534 20.31 23.688L16.334 24.93C16.2085 24.9732 16.0731 24.9785 15.9446 24.9455C15.8161 24.9124 15.7001 24.8424 15.611 24.744C13.841 22.671 11.858 19.78 11.319 16.854C11.3019 16.7759 11.3136 16.6942 11.352 16.624C11.937 15.641 12.943 14.527 13.945 13.552C15.642 11.899 16.285 9.274 15.165 7.036L13.095 2.896V2.894Z" fill="white"/>
</svg>
