<svg width="24" height="24" viewBox="0 0 24 24" fill="none" xmlns="http://www.w3.org/2000/svg">
<path d="M11.0475 3.447C10.6575 2.668 9.84249 2.0375 8.8415 2.149C7.946 2.2485 6.61649 2.5815 5.70999 3.673C4.77999 4.795 4.43249 6.544 5.14699 9.165C5.90999 11.9605 7.04299 14.716 8.45149 16.94C9.84949 19.1475 11.5715 20.914 13.547 21.5915C15.294 22.191 16.63 21.941 17.6045 21.283C18.5445 20.6485 19.0605 19.694 19.3275 19.033C19.6265 18.2925 19.4295 17.522 19.0395 16.9545L17.601 14.8625C17.2832 14.4002 16.8257 14.0519 16.2955 13.8686C15.7654 13.6853 15.1904 13.6767 14.655 13.844L12.667 14.465C12.6042 14.4866 12.5366 14.4893 12.4723 14.4727C12.408 14.4562 12.35 14.4212 12.3055 14.372C11.4205 13.3355 10.429 11.89 10.1595 10.427C10.151 10.3879 10.1568 10.3471 10.176 10.312C10.4685 9.8205 10.9715 9.2635 11.4725 8.776C12.321 7.9495 12.6425 6.637 12.0825 5.518L11.0475 3.448V3.447Z" fill="#F0FDFC"/>
</svg>
